<svg width="31.000000" height="32.000000" viewBox="0 0 31 32" fill="none" xmlns="http://www.w3.org/2000/svg" xmlns:xlink="http://www.w3.org/1999/xlink">
    <desc>
        Created with Pixso.
    </desc>
    <defs>
        <clipPath id="clip190_1618">
            <rect id="pinterest-p-brands 1" width="11.919281" height="16.000000" transform="translate(9.408081 8.000000)" fill="white" fill-opacity="0"/>
        </clipPath>
    </defs>
    <path id="Rectangle 14" d="M-0.53 0L30.92 0L30.92 32L-0.53 32L-0.53 0Z" fill="#FFFFFF" fill-opacity="1.000000" fill-rule="evenodd"/>
    <rect id="pinterest-p-brands 1" width="11.919281" height="16.000000" transform="translate(9.408081 8.000000)" fill="#FFFFFF" fill-opacity="0"/>
    <g clip-path="url(#clip190_1618)">
        <path id="Vector" d="M15.74 8.2C12.55 8.2 9.4 10.34 9.4 13.8C9.4 16 10.63 17.25 11.38 17.25C11.68 17.25 11.86 16.38 11.86 16.14C11.86 15.85 11.13 15.23 11.13 14.02C11.13 11.51 13.03 9.73 15.48 9.73C17.6 9.73 19.16 10.94 19.16 13.16C19.16 14.82 18.5 17.93 16.36 17.93C15.59 17.93 14.93 17.37 14.93 16.56C14.93 15.38 15.74 14.24 15.74 13.02C15.74 10.95 12.83 11.32 12.83 13.82C12.83 14.35 12.9 14.93 13.13 15.41C12.7 17.26 11.82 20.03 11.82 21.94C11.82 22.53 11.91 23.11 11.96 23.7C12.07 23.82 12.02 23.81 12.18 23.75C13.74 21.6 13.69 21.17 14.39 18.35C14.78 19.08 15.76 19.48 16.55 19.48C19.84 19.48 21.32 16.24 21.32 13.33C21.32 10.22 18.66 8.2 15.74 8.2Z" fill="#000000" fill-opacity="1.000000" fill-rule="nonzero"/>
    </g>
</svg>
