<svg width="31.000000" height="32.000000" viewBox="0 0 31 32" fill="none" xmlns="http://www.w3.org/2000/svg" xmlns:xlink="http://www.w3.org/1999/xlink">
    <desc>
        Created with Pixso.
    </desc>
    <defs>
        <clipPath id="clip190_1614">
            <rect id="twitter-brands 1" width="15.892374" height="16.000000" transform="translate(7.159302 8.000000)" fill="white" fill-opacity="0"/>
        </clipPath>
    </defs>
    <path id="Rectangle 14" d="M-0.79 0L30.66 0L30.66 32L-0.79 32L-0.79 0Z" fill="#FFFFFF" fill-opacity="1.000000" fill-rule="evenodd"/>
    <rect id="twitter-brands 1" width="15.892374" height="16.000000" transform="translate(7.159302 8.000000)" fill="#FFFFFF" fill-opacity="0"/>
    <g clip-path="url(#clip190_1614)">
        <path id="Vector" d="M21.41 12.74C21.42 12.88 21.42 13.02 21.42 13.16C21.42 17.5 18.15 22.49 12.16 22.49C10.31 22.49 8.6 21.95 7.15 21.02C7.42 21.05 7.67 21.06 7.94 21.06C9.46 21.06 10.87 20.54 11.98 19.66C10.55 19.63 9.35 18.69 8.94 17.39C9.14 17.42 9.34 17.44 9.55 17.44C9.85 17.44 10.14 17.4 10.41 17.32C8.92 17.02 7.8 15.7 7.8 14.11L7.8 14.07C8.23 14.31 8.74 14.46 9.27 14.48C8.39 13.89 7.82 12.89 7.82 11.75C7.82 11.14 7.98 10.58 8.26 10.1C9.87 12.09 12.28 13.39 14.98 13.53C14.93 13.28 14.9 13.03 14.9 12.78C14.9 10.97 16.35 9.5 18.16 9.5C19.09 9.5 19.94 9.89 20.54 10.53C21.27 10.39 21.98 10.12 22.6 9.74C22.36 10.5 21.85 11.14 21.17 11.55C21.83 11.48 22.46 11.29 23.05 11.04C22.6 11.69 22.05 12.27 21.41 12.74Z" fill="#000000" fill-opacity="1.000000" fill-rule="nonzero"/>
    </g>
</svg>
